# File created by Blade
# Date/Time:  Wed Jan 21 17:34:04 2015
# Frame Rate: 120.000 fps
#------------------------------------------------------
:FULLY-SPECIFIED
:DEGREES
559
root 18.236184 5.700702 -15.240761 -205.834418 14.969150 -130.449675
Spine 40.790324 -0.914024 22.893754
Head 12.328274 -18.121145 29.138279
LeftShoulder -0.514249 -7.128902 20.018159
LeftArm -41.664893 18.011476 -99.977959
LeftForeArm -26.888029 -0.000000 91.419181
LeftHand -22.050788 -0.000000 40.889721
LeftHandThumb1 -26.253704 0.000000 33.147579
RightShoulder -9.280850 -17.543015 16.388854
RightArm 7.691428 -29.225724 65.918459
RightForeArm -21.290929 -0.000000 14.297491
RightHand -6.977863 -0.000000 -14.485132
RightHandThumb1 -24.326973 -0.000000 -32.862282
LeftUpLeg -102.592032 23.465169 -33.209956
LeftLeg 128.412653 -0.000000 -0.000000
LeftFoot 32.108259 22.620166 -0.925992
LeftToeBase 29.532461 -0.000000 -0.000000
RightUpLeg -28.574134 7.788820 -24.441452
RightLeg 136.855513 -0.000000 -0.000000
RightFoot 29.350215 -23.790279 -17.479311
RightToeBase 22.515390 -0.000000 -0.000000
560
root 18.268869 5.702000 -15.299905 -205.582441 14.384528 -130.349166
Spine 40.344904 -0.742214 22.962345
Head 12.199435 -18.752329 29.241787
LeftShoulder -0.492525 -7.166335 19.969237
LeftArm -42.021836 18.499969 -99.933643
LeftForeArm -26.526740 -0.000000 91.851508
LeftHand -21.796070 -0.000000 40.502728
LeftHandThumb1 -26.253704 0.000000 33.147579
RightShoulder -9.247609 -17.498268 16.563597
RightArm 7.757216 -29.828276 66.113227
RightForeArm -21.491332 -0.000000 13.627480
RightHand -7.002739 -0.000000 -14.425451
RightHandThumb1 -24.326973 -0.000000 -32.862282
LeftUpLeg -102.553036 22.821629 -33.056478
LeftLeg 128.301785 -0.000000 -0.000000
LeftFoot 32.038542 23.055006 -0.929125
LeftToeBase 28.778141 -0.000000 -0.000000
RightUpLeg -27.694336 7.852981 -24.379829
RightLeg 136.694093 -0.000000 -0.000000
RightFoot 29.581555 -23.832809 -17.668904
RightToeBase 22.353510 -0.000000 -0.000000
561
root 18.304797 5.702922 -15.347743 -205.178428 13.932896 -130.153806
Spine 39.802432 -0.481104 23.212627
Head 12.091361 -19.211663 29.240580
LeftShoulder -0.500779 -7.266616 19.884411
LeftArm -42.449558 18.938302 -99.936893
LeftForeArm -26.091626 -0.000000 92.228318
LeftHand -21.590105 -0.000000 40.142254
LeftHandThumb1 -26.253704 0.000000 33.147579
RightShoulder -9.200762 -17.419556 16.682505
RightArm 7.786675 -30.379783 66.324507
RightForeArm -21.647204 -0.000000 12.920331
RightHand -6.964904 -0.000000 -14.617782
RightHandThumb1 -24.326973 -0.000000 -32.862282
LeftUpLeg -102.669467 22.130626 -32.776371
LeftLeg 128.216470 -0.000000 -0.000000
LeftFoot 31.790510 23.461181 -1.005842
LeftToeBase 29.379567 -0.000000 -0.000000
RightUpLeg -27.062535 7.880500 -24.146617
RightLeg 136.477482 -0.000000 -0.000000
RightFoot 30.089358 -23.854511 -18.023976
RightToeBase 22.329746 -0.000000 -0.000000
562
root 18.341070 5.703781 -15.400155 -204.836036 13.453998 -130.028817
Spine 39.327584 -0.205866 23.379047
Head 11.935827 -19.782446 29.292229
LeftShoulder -0.501352 -7.362230 19.812348
LeftArm -42.838135 19.373834 -99.894925
LeftForeArm -25.646393 -0.000000 92.591671
LeftHand -21.550360 -0.000000 39.825162
LeftHandThumb1 -26.253704 0.000000 33.147579
RightShoulder -9.190972 -17.363559 16.838383
RightArm 7.878460 -30.875590 66.549440
RightForeArm -21.989406 -0.000000 12.223890
RightHand -7.012564 -0.000000 -15.028427
RightHandThumb1 -24.326973 -0.000000 -32.862282
LeftUpLeg -102.768497 21.445591 -32.626157
LeftLeg 128.055766 -0.000000 -0.000000
LeftFoot 31.858207 24.715800 -1.433418
LeftToeBase 27.971758 -0.000000 -0.000000
RightUpLeg -26.404314 7.930216 -24.003116
RightLeg 136.290493 -0.000000 -0.000000
RightFoot 30.308702 -24.039511 -18.092549
RightToeBase 22.339757 -0.000000 -0.000000
563
root 18.373933 5.700999 -15.451065 -204.523828 12.944914 -129.986176
Spine 38.892547 0.104717 23.445899
Head 11.756992 -20.302304 29.356234
LeftShoulder -0.485516 -7.361395 19.782688
LeftArm -43.076334 19.780994 -99.811564
LeftForeArm -25.226712 0.000000 92.901801
LeftHand -21.508724 0.000000 39.308001
LeftHandThumb1 -26.253704 0.000000 33.147579
RightShoulder -9.182084 -17.252395 17.015703
RightArm 7.972661 -31.429347 66.775837
RightForeArm -22.380596 -0.000000 11.522647
RightHand -7.071139 -0.000000 -15.296093
RightHandThumb1 -24.326973 -0.000000 -32.862282
LeftUpLeg -102.849234 20.738935 -32.641082
LeftLeg 127.938042 -0.000000 -0.000000
LeftFoot 31.988224 25.235649 -0.618923
LeftToeBase 28.241286 -0.000000 -0.000000
RightUpLeg -25.762066 8.030249 -23.989460
RightLeg 136.100762 -0.000000 -0.000000
RightFoot 30.464207 -23.941747 -18.190606
RightToeBase 22.340256 -0.000000 -0.000000
564
root 18.405823 5.700856 -15.504481 -204.221172 12.492485 -129.944180
Spine 38.482073 0.442934 23.529820
Head 11.600406 -20.730843 29.423593
LeftShoulder -0.462367 -7.330796 19.775202
LeftArm -43.260622 20.105149 -99.740724
LeftForeArm -24.760523 -0.000000 93.150878
LeftHand -21.586812 -0.000000 38.583033
LeftHandThumb1 -26.253704 0.000000 33.147579
RightShoulder -9.148635 -17.267676 17.209479
RightArm 8.147617 -31.794937 66.968231
RightForeArm -22.702767 -0.000000 10.884072
RightHand -7.036196 0.000000 -15.513628
RightHandThumb1 -24.326973 -0.000000 -32.862282
LeftUpLeg -103.034125 20.079464 -32.683399
LeftLeg 127.839762 -0.000000 -0.000000
LeftFoot 32.529146 26.526861 -1.019714
LeftToeBase 27.497444 -0.000000 -0.000000
RightUpLeg -25.153374 8.102847 -23.917740
RightLeg 135.906055 -0.000000 -0.000000
RightFoot 30.640933 -23.989143 -18.339587
RightToeBase 22.206121 -0.000000 -0.000000
565
root 18.434967 5.701189 -15.559665 -203.918799 12.051612 -129.899167
Spine 38.088314 0.774008 23.623059
Head 11.421386 -21.207653 29.462665
LeftShoulder -0.468025 -7.324313 19.756413
LeftArm -43.476104 20.451798 -99.702919
LeftForeArm -24.395055 0.000000 93.414821
LeftHand -21.362394 -0.000000 38.283117
LeftHandThumb1 -26.253704 0.000000 33.147579
RightShoulder -9.100453 -17.201132 17.381271
RightArm 8.225085 -32.230101 67.193591
RightForeArm -23.010174 0.000000 10.270718
RightHand -7.147713 -0.000000 -15.692490
RightHandThumb1 -24.326973 -0.000000 -32.862282
LeftUpLeg -103.206229 19.409505 -32.725695
LeftLeg 127.934850 -0.000000 -0.000000
LeftFoot 32.520211 26.766763 -1.293414
LeftToeBase 27.160675 -0.000000 -0.000000
RightUpLeg -24.536008 8.174684 -23.863809
RightLeg 135.700545 -0.000000 -0.000000
RightFoot 30.657942 -23.955157 -18.615219
RightToeBase 22.249752 -0.000000 -0.000000
566
root 18.453697 5.698545 -15.600405 -203.450386 11.591039 -129.889512
Spine 37.503943 1.162320 23.690096
Head 11.390128 -21.720724 29.488704
LeftShoulder -0.424903 -7.240889 19.651278
LeftArm -43.575950 20.726596 -99.603493
LeftForeArm -23.749959 -0.000000 93.596297
LeftHand -21.328871 -0.000000 37.910016
LeftHandThumb1 -26.253704 0.000000 33.147579
RightShoulder -8.975454 -17.161756 17.654650
RightArm 8.180292 -32.518711 67.366283
RightForeArm -23.381284 -0.000000 9.704086
RightHand -7.336226 -0.000000 -16.232580
RightHandThumb1 -24.326973 -0.000000 -32.862282
LeftUpLeg -103.441872 18.654425 -32.794458
LeftLeg 128.038347 -0.000000 -0.000000
LeftFoot 32.494004 26.486603 -2.054627
LeftToeBase 25.705332 -0.000000 -0.000000
RightUpLeg -24.120816 8.170818 -23.819422
RightLeg 135.515814 -0.000000 -0.000000
RightFoot 30.431218 -24.054365 -18.532124
RightToeBase 22.308037 -0.000000 -0.000000
